<?xml version="1.0" standalone="no"?>
<!DOCTYPE svg PUBLIC "-//W3C//DTD SVG 20010904//EN"
 "http://www.w3.org/TR/2001/REC-SVG-20010904/DTD/svg10.dtd">
<svg version="1.0" xmlns="http://www.w3.org/2000/svg"
 width="1500.000000pt" height="1500.000000pt" viewBox="0 0 1500.000000 1500.000000"
 preserveAspectRatio="xMidYMid meet">
<metadata>
Created by potrace 1.14, written by Peter Selinger 2001-2017
</metadata>
<g transform="translate(0.000000,1500.000000) scale(0.100000,-0.100000)"
fill="#000000" stroke="none">
<path d="M910 9910 l0 -1100 60 0 60 0 0 1100 0 1100 -60 0 -60 0 0 -1100z"/>
<path d="M1130 9910 l0 -1100 65 0 65 0 0 1100 0 1100 -65 0 -65 0 0 -1100z"/>
<path d="M1360 11005 c0 -3 0 -497 0 -1097 l0 -1093 60 -3 60 -3 0 1101 0
1100 -60 0 c-33 0 -60 -2 -60 -5z"/>
<path d="M1912 9913 l3 -1098 173 -3 172 -2 0 1100 0 1100 -175 0 -175 0 2
-1097z"/>
<path d="M2360 9910 l0 -1100 175 0 175 0 0 1100 0 1100 -175 0 -175 0 0
-1100z"/>
<path d="M2810 9910 l0 -1100 170 0 170 0 0 1100 0 1100 -170 0 -170 0 0
-1100z"/>
<path d="M3590 9910 l0 -1100 60 0 60 0 0 1100 0 1100 -60 0 -60 0 0 -1100z"/>
<path d="M3810 9910 l0 -1101 63 3 62 3 0 1095 0 1095 -62 3 -63 3 0 -1101z"/>
<path d="M4032 9913 l3 -1098 63 -3 62 -3 0 1101 0 1100 -65 0 -65 0 2 -1097z"/>
<path d="M4260 9910 l0 -1100 170 0 170 0 0 1100 0 1100 -170 0 -170 0 0
-1100z"/>
<path d="M4700 9910 l0 -1100 65 0 65 0 0 1100 0 1100 -65 0 -65 0 0 -1100z"/>
<path d="M4930 9910 l0 -1100 170 0 170 0 0 1100 0 1100 -170 0 -170 0 0
-1100z"/>
<path d="M5370 9910 l0 -1100 65 0 65 0 0 1100 0 1100 -65 0 -65 0 0 -1100z"/>
<path d="M5930 9910 l0 -1100 175 0 175 0 0 1100 0 1100 -175 0 -175 0 0
-1100z"/>
<path d="M6380 9910 l0 -1100 60 0 60 0 0 1100 0 1100 -60 0 -60 0 0 -1100z"/>
<path d="M6600 9910 l0 -1100 60 0 60 0 0 1100 0 1100 -60 0 -60 0 0 -1100z"/>
<path d="M6825 10998 c-3 -7 -4 -501 -3 -1098 l3 -1085 63 -3 62 -3 0 1101 0
1100 -60 0 c-39 0 -62 -4 -65 -12z"/>
<path d="M7050 9910 l0 -1100 170 0 170 0 0 1100 0 1100 -170 0 -170 0 0
-1100z"/>
<path d="M7830 9910 l0 -1100 60 0 60 0 0 1100 0 1100 -60 0 -60 0 0 -1100z"/>
<path d="M8050 9910 l0 -1100 175 0 175 0 0 1100 0 1100 -175 0 -175 0 0
-1100z"/>
<path d="M8500 9910 l0 -1100 175 0 175 0 0 1100 0 1100 -175 0 -175 0 0
-1100z"/>
<path d="M8950 9910 l0 -1100 60 0 60 0 0 1100 0 1100 -60 0 -60 0 0 -1100z"/>
<path d="M9170 9910 l0 -1100 173 2 172 3 0 1095 0 1095 -172 3 -173 2 0
-1100z"/>
<path d="M9950 9910 l0 -1100 60 0 60 0 0 1100 0 1100 -60 0 -60 0 0 -1100z"/>
<path d="M10170 9910 l0 -1100 65 0 65 0 0 1100 0 1100 -65 0 -65 0 0 -1100z"/>
<path d="M10400 9910 l0 -1100 60 0 60 0 0 1100 0 1100 -60 0 -60 0 0 -1100z"/>
<path d="M10620 9910 l0 -1100 60 0 60 0 0 1100 0 1100 -60 0 -60 0 0 -1100z"/>
<path d="M10840 9910 l0 -1100 175 0 175 0 0 1100 0 1100 -175 0 -175 0 0
-1100z"/>
<path d="M11630 9910 l0 -1100 60 0 60 0 0 1100 0 1100 -60 0 -60 0 0 -1100z"/>
<path d="M11850 9910 l0 -1100 170 0 170 0 0 1100 0 1100 -170 0 -170 0 0
-1100z"/>
<path d="M1780 8481 c-160 -66 -244 -274 -212 -523 19 -157 84 -262 194 -318
52 -25 73 -30 135 -30 81 0 162 23 225 65 l38 26 -2 172 -3 172 -125 0 -125 0
-3 -47 -3 -48 80 0 81 0 0 -100 0 -99 -30 -16 c-50 -26 -125 -36 -180 -24
-125 27 -190 174 -177 403 8 154 42 227 122 266 48 23 131 29 175 12 30 -12
90 -71 90 -89 0 -7 5 -13 11 -13 16 0 79 53 79 67 0 24 -60 80 -117 109 -75
37 -183 44 -253 15z"/>
<path d="M3484 8487 c-3 -8 -4 -163 -2 -343 3 -321 4 -330 27 -381 49 -109
138 -158 273 -151 88 5 132 21 181 67 77 71 89 140 85 516 l-3 300 -47 3 -47
3 -3 -328 c-3 -327 -3 -328 -28 -377 -37 -74 -66 -91 -155 -91 -59 0 -79 4
-101 21 -46 34 -64 67 -75 135 -9 60 -8 568 2 614 4 18 -2 20 -49 23 -38 2
-54 -1 -58 -11z"/>
<path d="M5437 8494 c-4 -4 -7 -27 -7 -51 l0 -43 80 0 80 0 0 -345 0 -345 -85
0 -85 0 0 -45 0 -45 228 2 227 3 3 43 3 42 -90 0 -91 0 0 345 0 345 86 0 85 0
-3 48 -3 47 -211 3 c-115 1 -213 -1 -217 -4z"/>
<path d="M7288 8494 c-5 -4 -8 -203 -8 -442 l0 -434 153 4 c115 4 163 9 197
23 141 57 220 207 220 420 0 194 -69 334 -196 396 -62 31 -71 32 -212 37 -81
2 -150 1 -154 -4z m288 -109 c119 -35 172 -157 162 -373 -11 -214 -91 -302
-275 -302 l-83 0 0 345 0 345 73 0 c40 0 96 -7 123 -15z"/>
<path d="M9187 8493 c-4 -3 -7 -201 -7 -440 l0 -433 271 0 270 0 -3 48 -3 47
-215 3 -215 2 2 151 2 150 178 2 178 2 3 53 3 52 -183 0 -183 0 0 135 0 135
218 0 217 0 0 50 0 50 -263 0 c-145 0 -267 -3 -270 -7z"/>
<path d="M11078 8494 c-5 -4 -8 -203 -8 -442 l0 -434 153 4 c126 4 162 8 209
27 62 24 123 82 157 150 52 102 68 291 36 428 -27 116 -118 225 -213 253 -44
14 -324 26 -334 14z m329 -122 c86 -45 126 -143 127 -312 1 -152 -18 -217 -82
-281 -55 -55 -96 -69 -199 -69 l-73 0 0 346 0 346 93 -4 c69 -3 103 -10 134
-26z"/>
<path d="M910 6290 l0 -1100 60 0 60 0 0 1100 0 1100 -60 0 -60 0 0 -1100z"/>
<path d="M1130 6290 l0 -1100 175 0 175 0 0 1100 0 1100 -175 0 -175 0 0
-1100z"/>
<path d="M1580 6290 l0 -1100 170 0 170 0 0 1100 0 1100 -170 0 -170 0 0
-1100z"/>
<path d="M2360 6290 l0 -1100 60 0 60 0 0 1100 0 1100 -60 0 -60 0 0 -1100z"/>
<path d="M2582 6293 l3 -1098 63 -3 62 -3 0 1101 0 1100 -65 0 -65 0 2 -1097z"/>
<path d="M2810 6290 l0 -1100 170 0 170 0 0 1100 0 1100 -170 0 -170 0 0
-1100z"/>
<path d="M3250 6290 l0 -1100 60 0 60 0 0 1100 0 1100 -60 0 -60 0 0 -1100z"/>
<path d="M3480 6290 l0 -1100 60 0 60 0 0 1100 0 1100 -60 0 -60 0 0 -1100z"/>
<path d="M4032 6293 l3 -1098 63 -3 62 -3 0 1101 0 1100 -65 0 -65 0 2 -1097z"/>
<path d="M4260 6290 l0 -1100 170 0 170 0 0 1100 0 1100 -170 0 -170 0 0
-1100z"/>
<path d="M4700 6290 l0 -1100 65 0 65 0 0 1100 0 1100 -65 0 -65 0 0 -1100z"/>
<path d="M4930 6290 l0 -1100 170 0 170 0 0 1100 0 1100 -170 0 -170 0 0
-1100z"/>
<path d="M5370 6290 l0 -1100 65 0 65 0 0 1100 0 1100 -65 0 -65 0 0 -1100z"/>
<path d="M5600 6290 l0 -1100 170 0 170 0 0 1100 0 1100 -170 0 -170 0 0
-1100z"/>
<path d="M6380 6290 l0 -1100 60 0 60 0 0 1100 0 1100 -60 0 -60 0 0 -1100z"/>
<path d="M6600 6290 l0 -1100 175 0 175 0 0 1100 0 1100 -175 0 -175 0 0
-1100z"/>
<path d="M7050 6290 l0 -1100 60 0 60 0 0 1100 0 1100 -60 0 -60 0 0 -1100z"/>
<path d="M7270 6290 l0 -1100 60 0 60 0 0 1100 0 1100 -60 0 -60 0 0 -1100z"/>
<path d="M7830 6290 l0 -1100 173 2 172 3 0 1095 0 1095 -172 3 -173 2 0
-1100z"/>
<path d="M8280 6290 l0 -1100 60 0 60 0 0 1100 0 1100 -60 0 -60 0 0 -1100z"/>
<path d="M8500 6290 l0 -1100 60 0 60 0 0 1100 0 1100 -60 0 -60 0 0 -1100z"/>
<path d="M8720 6290 l0 -1100 175 0 175 0 0 1100 0 1100 -175 0 -175 0 0
-1100z"/>
<path d="M9170 6290 l0 -1100 60 0 60 0 0 1100 0 1100 -60 0 -60 0 0 -1100z"/>
<path d="M9730 6290 l0 -1100 170 0 170 0 0 1100 0 1100 -170 0 -170 0 0
-1100z"/>
<path d="M10170 6290 l0 -1100 65 0 65 0 0 1100 0 1100 -65 0 -65 0 0 -1100z"/>
<path d="M10400 6290 l0 -1100 170 0 170 0 0 1100 0 1100 -170 0 -170 0 0
-1100z"/>
<path d="M10840 6290 l0 -1101 63 3 62 3 3 1098 2 1097 -65 0 -65 0 0 -1100z"/>
<path d="M11065 7378 c-3 -7 -4 -501 -3 -1098 l3 -1085 173 -3 172 -2 0 1100
0 1100 -170 0 c-127 0 -172 -3 -175 -12z"/>
<path d="M11510 6290 l0 -1100 60 0 60 0 0 1100 0 1100 -60 0 -60 0 0 -1100z"/>
<path d="M12070 6290 l0 -1100 60 0 60 0 0 1100 0 1100 -60 0 -60 0 0 -1100z"/>
<path d="M12290 6290 l0 -1101 63 3 62 3 3 1098 2 1097 -65 0 -65 0 0 -1100z"/>
<path d="M12520 6290 l0 -1100 60 0 60 0 0 1100 0 1100 -60 0 -60 0 0 -1100z"/>
<path d="M12740 6290 l0 -1100 173 2 172 3 3 1098 2 1097 -175 0 -175 0 0
-1100z"/>
<path d="M13190 6290 l0 -1100 60 0 60 0 0 1100 0 1100 -60 0 -60 0 0 -1100z"/>
<path d="M13740 6290 l0 -1100 175 0 175 0 0 1100 0 1100 -175 0 -175 0 0
-1100z"/>
<path d="M3745 4878 c-2 -7 -13 -38 -24 -68 -11 -30 -58 -163 -106 -295 -47
-132 -95 -265 -106 -295 -12 -30 -34 -92 -49 -137 l-29 -83 54 0 53 0 42 125
42 125 137 0 137 0 41 -122 41 -123 56 -3 c31 -2 56 -1 56 1 0 3 -30 85 -66
183 -36 99 -72 197 -79 219 -14 43 -148 412 -167 458 -11 29 -26 35 -33 15z
m69 -386 c25 -75 46 -141 46 -145 0 -4 -47 -7 -105 -7 l-104 0 24 63 c13 34
37 99 52 145 15 45 30 82 34 82 3 0 27 -62 53 -138z"/>
<path d="M5605 4881 c-119 -22 -195 -105 -195 -216 0 -101 60 -176 186 -235
220 -102 235 -114 242 -193 4 -47 1 -57 -24 -86 -15 -19 -43 -40 -61 -47 -39
-17 -132 -18 -184 -3 -44 14 -109 64 -109 85 0 28 -26 13 -53 -31 -15 -25 -27
-48 -27 -51 0 -13 60 -58 110 -82 73 -35 203 -43 280 -17 147 49 220 219 148
346 -28 50 -81 86 -211 144 -137 62 -176 95 -184 154 -12 87 43 141 144 141
73 0 137 -28 161 -70 9 -16 20 -30 24 -30 3 0 21 19 39 41 l33 42 -34 29 c-79
65 -190 96 -285 79z"/>
<path d="M1627 4874 c-4 -4 -7 -202 -7 -441 l0 -433 55 0 55 0 0 213 0 212
157 0 158 0 3 48 3 47 -160 0 -161 0 0 130 0 130 201 0 200 0 -3 48 -3 47
-246 3 c-135 1 -248 -1 -252 -4z"/>
<path d="M7280 4440 l0 -440 55 0 55 0 0 205 0 205 160 0 160 0 0 -205 0 -205
54 0 c30 0 57 4 60 9 3 4 6 201 6 437 l1 429 -58 0 -58 0 -3 -182 -2 -183
-161 0 -160 0 2 183 2 182 -57 3 -56 3 0 -441z"/>
<path d="M9230 4830 l0 -50 80 0 79 0 -2 -342 -2 -343 -87 -3 -88 -3 0 -44 0
-45 230 0 230 0 0 45 0 45 -90 0 -90 0 0 345 0 345 85 0 85 0 0 50 0 50 -215
0 -215 0 0 -50z"/>
<path d="M11253 4864 c-100 -37 -181 -151 -204 -288 -15 -91 -6 -294 16 -361
25 -76 83 -155 139 -190 43 -26 61 -30 133 -34 75 -3 89 0 139 24 135 66 209
267 183 500 -19 177 -78 282 -191 341 -45 24 -161 28 -215 8z m177 -104 c46
-23 81 -78 105 -164 25 -85 17 -298 -13 -377 -40 -102 -120 -151 -214 -130
-59 13 -111 71 -135 148 -25 81 -25 304 0 385 41 133 151 192 257 138z"/>
<path d="M12970 4439 l0 -440 48 3 47 3 5 323 5 322 109 -192 c60 -106 143
-253 184 -325 l75 -133 38 0 38 0 4 418 c2 229 5 426 8 437 4 18 -1 20 -51 20
l-55 0 -5 -308 -5 -307 -41 72 c-22 40 -94 168 -159 283 -155 276 -146 265
-201 265 l-44 0 0 -441z"/>
</g>
</svg>
